<svg t="1668396715675" class="icon" viewBox="0 0 1024 1024" version="1.1" xmlns="http://www.w3.org/2000/svg" p-id="29107" width="128" height="128"><path d="M74.942 70.04h63.96c111.48 0.72 188.64 9 234.24 26.1 63.18 23.7 124.44 63.48 183.6 118.92l17.76 17.1 16.38 16.98 16.02 17.4 17.22 19.68 19.8 23.52 200.28-8.52 130.5 282-140.28 30.18c35.1 48.54 61.98 125.7 83.52 233.4l4.2 21.96 11.1 59.4-59.76-9.12-22.26-3.6c-102-16.98-176.94-40.14-225.84-71.4l-10.08-6.84-15.36 79.2-10.56 53.58-282.9-131.16 8.52-200.28-31.44-26.76c-17.88-15.6-30.84-27.6-45.84-42.3-67.8-68.1-114-134.46-138.78-200.1-13.32-35.22-20.82-92.7-23.28-174.42l-0.54-19.26-0.42-41.16 0.24-64.5h63.96-63.96z m85.8 86.1l0.72 35.28c2.22 72.9 8.4 122.7 17.82 147.6 18.36 48.78 53.04 100.38 104.52 154.68l14.4 14.88 18.48 17.64 13.02 11.82 23.7 20.52 49.2 41.22-7.92 185.28 131.64 61.08 20.58-104.52c27.24-82.62 84-146.64 157.5-181.62l13.98-6.18 17.28-6.6 116.1-25.2-61.38-132.6-185.4 7.86-23.82-28.8a1587.12 1587.12 0 0 0-40.2-46.86l-13.56-14.7-13.8-14.22c-56.16-55.92-113.28-94.68-170.58-116.1-29.04-10.92-84.6-17.88-164.7-20.04l-17.52-0.36z m595.56 496.8l-15.36-15.24a214.62 214.62 0 0 0-96.72 92.22l-6.06 12.3 15.42 15.36 5.4 4.98c23.64 19.86 67.98 38.16 132.3 53.4l16.44 3.84 17.4 3.6-4.14-16.92c-17.82-71.7-38.22-121.2-59.7-147.78l-4.98-5.7-15.36-15.3 15.36 15.3z m-452.28-395.52c12.48 0 23.28 4.38 32.16 13.08a42.24 42.24 0 0 1 13.38 31.32 41.94 41.94 0 0 1-13.38 31.38 44.4 44.4 0 0 1-32.16 13.08 44.04 44.04 0 0 1-32.1-13.08 42.24 42.24 0 0 1-13.44-31.38 41.94 41.94 0 0 1 13.44-31.32 44.4 44.4 0 0 1 32.1-13.08z" fill="#1296db" p-id="29108"></path></svg>