<svg t="1670922849351" class="icon" viewBox="0 0 1024 1024" version="1.1" xmlns="http://www.w3.org/2000/svg" p-id="2320" width="200" height="200"><path d="M411.24 143.42C434.96 174.37 472.32 194 513 194c40.42 0 77.63-19.45 101.38-50.13 14.96 4.15 29.65 9.21 43.97 15.16a381.125 381.125 0 0 1 40.55 19.74c-3.96 33.5 5.46 68.54 27.87 98.9a73.95 73.95 0 0 0 15.52 15.53c25.48 18.84 54.45 28.8 83.76 28.8 5.63 0 11.24-0.37 16.77-1.1a381.323 381.323 0 0 1 21.74 43.81 379.82 379.82 0 0 1 16.59 48.76c-29.87 23.71-48.4 60.23-48.4 100.29 0 39.6 18.24 75.87 47.64 99.63-4.3 15.64-9.59 31.01-15.85 45.96a380.536 380.536 0 0 1-20.14 41 128.68 128.68 0 0 0-16.92-1.12c-29.29 0-58.24 9.94-83.71 28.76a73.856 73.856 0 0 0-15.54 15.54c-22.94 31.06-32.31 66.78-27.74 100.79a379.391 379.391 0 0 1-38.71 19.19 378.049 378.049 0 0 1-41.41 14.88c-23.68-30.92-60.98-50.5-101.77-50.5-42.57 0-80.81 20.79-104.19 53.54-15.94-4.2-31.61-9.43-46.86-15.67a379.95 379.95 0 0 1-43.64-21.19c4.5-33.96-4.87-69.6-27.76-100.59a73.856 73.856 0 0 0-15.54-15.54c-25.47-18.81-54.41-28.75-83.7-28.75-5.74 0-11.44 0.38-17.08 1.14a381.19 381.19 0 0 1-21.66-44.48 379.01 379.01 0 0 1-16.04-48.33c32.36-23.47 52.91-61.55 52.91-103.67 0-40.89-18.87-77.65-49.36-101.21 4.11-13.84 9-27.44 14.65-40.7a381.816 381.816 0 0 1 18.85-38.17c5.4 0.69 10.86 1.04 16.36 1.04 29.29 0 58.23-9.94 83.7-28.75a74.045 74.045 0 0 0 15.54-15.53c22.94-31.06 32.31-66.79 27.74-100.82a380.87 380.87 0 0 1 42.32-20.86c15.12-6.3 30.62-11.62 46.4-15.93m29.5-71.63c-0.53 0-1.07 0.04-1.61 0.13-68.94 11.33-132.55 38.48-186.99 77.58-4.28 3.08-5.42 8.99-2.58 13.43 13.66 21.37 14.99 51.38-6.21 80.07-0.58 0.79-1.29 1.5-2.08 2.08-15.36 11.34-31.09 16.23-45.68 16.23-12.54 0-24.23-3.61-34.1-9.85a9.863 9.863 0 0 0-5.3-1.53c-3.12 0-6.19 1.47-8.12 4.18-36.69 51.69-62.65 111.52-74.62 176.27-0.98 5.29 2.46 10.36 7.71 11.53 28.57 6.41 49.92 31.92 49.92 62.43 0 31.28-22.44 57.3-52.09 62.88-5.3 1-8.84 6.01-8.05 11.35 10.64 71.07 38.04 136.66 78.07 192.61 1.93 2.7 5 4.16 8.11 4.16 1.84 0 3.7-0.51 5.35-1.57 9.95-6.38 21.77-10.08 34.47-10.08 14.59 0 30.32 4.89 45.68 16.23 0.79 0.58 1.5 1.29 2.08 2.08 21.19 28.68 19.87 58.67 6.23 80.04-2.85 4.46-1.69 10.39 2.62 13.45 55.5 39.53 120.43 66.67 190.76 77.38 0.5 0.08 1.01 0.11 1.5 0.11 4.77 0 8.96-3.45 9.81-8.29 5.29-30.01 31.48-52.82 63-52.82 30.86 0 56.61 21.84 62.66 50.91 0.98 4.72 5.11 8.03 9.76 8.03 0.59 0 1.19-0.05 1.79-0.16 65.5-11.99 126.01-38.28 178.15-75.53 4.3-3.07 5.44-9 2.59-13.45-13.7-21.38-15.06-51.41 6.16-80.14 0.58-0.79 1.29-1.5 2.08-2.08 15.36-11.35 31.1-16.24 45.68-16.24 12.67 0 24.47 3.69 34.41 10.04a9.858 9.858 0 0 0 5.34 1.56c3.12 0 6.18-1.46 8.11-4.17C913.6 717 940.28 654.55 951.72 586.9c0.86-5.1-2.34-9.99-7.34-11.31-27.41-7.23-47.62-32.18-47.62-61.87 0-29.86 20.45-54.93 48.1-62 5.01-1.28 8.24-6.15 7.42-11.26-11.29-70.05-38.88-134.65-78.77-189.76a9.98 9.98 0 0 0-8.08-4.12c-1.81 0-3.64 0.49-5.28 1.53-9.87 6.23-21.56 9.84-34.09 9.84-14.6 0-30.35-4.9-45.72-16.26-0.79-0.58-1.5-1.29-2.08-2.08-20.82-28.21-19.87-57.76-6.8-79.07 2.74-4.46 1.53-10.31-2.75-13.33-53.22-37.53-115.03-63.7-181.89-75-0.56-0.09-1.11-0.14-1.66-0.14-4.6 0-8.7 3.23-9.73 7.87C569.07 108.6 543.54 130 513 130c-30.64 0-56.24-21.54-62.51-50.3-1.02-4.66-5.12-7.91-9.75-7.91z" p-id="2321"></path><path d="M512 396c30.98 0 60.11 12.07 82.02 33.98C615.93 451.89 628 481.02 628 512s-12.07 60.11-33.98 82.02C572.11 615.93 542.98 628 512 628s-60.11-12.07-82.02-33.98C408.07 572.11 396 542.98 396 512s12.07-60.11 33.98-82.02C451.89 408.07 481.02 396 512 396m0-64c-99.41 0-180 80.59-180 180s80.59 180 180 180 180-80.59 180-180-80.59-180-180-180z" p-id="2322"></path></svg>