<?xml version="1.0" standalone="no"?><!DOCTYPE svg PUBLIC "-//W3C//DTD SVG 1.1//EN" "http://www.w3.org/Graphics/SVG/1.1/DTD/svg11.dtd"><svg t="1679117113325" class="icon" viewBox="0 0 1024 1024" version="1.1" xmlns="http://www.w3.org/2000/svg" p-id="3891" xmlns:xlink="http://www.w3.org/1999/xlink" width="200" height="200"><path d="M402.31 162.08c8.82 0 16 7.18 16 16v240h-240c-8.82 0-16-7.18-16-16v-224c0-8.82 7.18-16 16-16h224m0-64h-224c-44.18 0-80 35.82-80 80v224c0 44.18 35.82 80 80 80h304v-304c0-44.19-35.82-80-80-80zM732 115.61c3.02 0 7.44 0.81 11.31 4.69L901.7 278.69c6.24 6.24 6.24 16.39 0 22.63L743.31 459.71c-3.87 3.87-8.29 4.69-11.31 4.69s-7.44-0.81-11.31-4.69l-158.4-158.4c-6.24-6.24-6.24-16.39 0-22.63l158.39-158.39c3.88-3.87 8.3-4.68 11.32-4.68m0-64c-20.47 0-40.95 7.81-56.57 23.43L517.04 233.43c-31.24 31.24-31.24 81.89 0 113.14l158.39 158.39c15.62 15.62 36.09 23.43 56.57 23.43s40.95-7.81 56.57-23.43l158.39-158.39c31.24-31.24 31.24-81.89 0-113.14L788.57 75.04c-15.62-15.62-36.1-23.43-56.57-23.43zM418.31 607.62v240c0 8.82-7.18 16-16 16h-224c-8.82 0-16-7.18-16-16v-224c0-8.82 7.18-16 16-16h240m64-64h-304c-44.18 0-80 35.82-80 80v224c0 44.18 35.82 80 80 80h224c44.18 0 80-35.82 80-80v-304zM844 608c8.82 0 16 7.18 16 16v224c0 8.82-7.18 16-16 16H620c-8.82 0-16-7.18-16-16V608h240m0-64H540v304c0 44.18 35.82 80 80 80h224c44.18 0 80-35.82 80-80V624c0-44.18-35.82-80-80-80z" p-id="3892"></path></svg>