<svg t="1672366969826" class="icon" viewBox="0 0 1024 1024" version="1.1" xmlns="http://www.w3.org/2000/svg" p-id="3761" width="128" height="128"><path d="M712.39 429.28H311.61c-16.57 0-30-13.43-30-30s13.43-30 30-30h400.78c16.56 0 30 13.43 30 30s-13.44 30-30 30zM712.39 579.58H311.61c-16.57 0-30-13.44-30-30s13.43-30 30-30h400.78c16.56 0 30 13.44 30 30s-13.44 30-30 30zM712.39 729.87H311.61c-16.57 0-30-13.44-30-30s13.43-30 30-30h400.78c16.56 0 30 13.44 30 30s-13.44 30-30 30z" p-id="3762"></path><path d="M762.68 942H261.32c-71.68 0-130-58.32-130-130V262.1c0-71.68 58.32-130 130-130h100.39c16.57 0 30 13.43 30 30 0 11.08 9.01 20.1 20.1 20.1H612.2c11.07 0 20.1-9.01 20.1-20.1 0-16.57 13.44-30 30-30h100.39c71.68 0 130 58.32 130 130V812c-0.01 71.68-58.33 130-130.01 130zM261.32 192.1c-38.59 0-70 31.41-70 70V812c0 38.59 31.41 70 70 70h501.37c38.59 0 70-31.41 70-70V262.1c0-38.59-31.41-70-70-70h-76.21c-11.91 29.35-40.72 50.1-74.28 50.1H411.8c-33.56 0-62.37-20.75-74.27-50.1h-76.21z" p-id="3763"></path><path d="M612.2 242.2H411.8c-44.17 0-80.1-35.93-80.1-80.1S367.63 82 411.8 82h200.4c44.16 0 80.1 35.93 80.1 80.1s-35.94 80.1-80.1 80.1zM411.8 142c-10.9 0-20.1 9.2-20.1 20.1 0 11.08 9.01 20.1 20.1 20.1h200.4c11.07 0 20.1-9.01 20.1-20.1 0-10.9-9.2-20.1-20.1-20.1H411.8z" p-id="3764"></path></svg>